<svg xmlns="http://www.w3.org/2000/svg" width="200" height="200"><path fill-rule="evenodd" d="M56.937 26.331c-21.21 12.193-39.58 22.846-40.822 23.672-2.159 1.438-.355 2.413 41.274 22.301l43.532 20.797 39.79-23.674c21.884-13.02 40.333-24.18 40.999-24.8.915-.852-9.166-5.886-41.304-20.627-23.382-10.725-43.052-19.576-43.71-19.669-.658-.094-18.55 9.806-39.759 22m86.356 43.439L102.086 94.5l-.043 50.314-.043 50.314 4.121-2.314c2.266-1.273 21.054-12.457 41.75-24.854l37.629-22.54.251-34.96c.138-19.228-.087-41.814-.5-50.19l-.751-15.231zM12.344 62.75c.355 5.362.658 27.975.673 50.25l.027 40.5L55.562 174c23.384 11.275 43.179 20.646 43.987 20.825 1.28.283 1.436-6.133 1.21-49.8l-.259-50.124L57.112 73.95C33.248 62.428 13.268 53 12.711 53c-.658 0-.787 3.411-.367 9.75"/></svg>